<svg width="36" height="37" viewBox="0 0 36 37" fill="none" xmlns="http://www.w3.org/2000/svg">
<path d="M23.2891 24.024C22.4184 21.7106 21.0639 19.6098 19.3161 17.8619C17.5683 16.1141 15.4674 14.7596 13.154 13.8889C12.19 13.5282 11.1981 13.2467 10.1883 13.0472L3.29535 19.9409C1.49863 21.7379 0.489258 24.1749 0.489258 26.7161C0.489258 29.2572 1.49863 31.6943 3.29535 33.4913C5.09233 35.288 7.52941 36.2974 10.0705 36.2974C12.6117 36.2974 15.0488 35.288 16.8457 33.4913L23.9909 26.3468C23.8075 25.5582 23.5731 24.7823 23.2891 24.024Z" fill="#214695"/>
<path d="M33.1526 3.63471C31.3556 1.83798 28.9186 0.828613 26.3774 0.828613C23.8363 0.828613 21.3992 1.83798 19.6022 3.63471L12.3712 10.865C12.9337 11.023 13.4847 11.2026 14.0241 11.404C16.7107 12.4054 19.1506 13.9728 21.1781 16C23.2057 18.0272 24.7736 20.4668 25.7754 23.1532C25.9043 23.4991 26.0239 23.8497 26.1343 24.2048L33.1526 17.1851C34.9493 15.3881 35.9587 12.951 35.9587 10.4099C35.9587 7.86876 34.9493 5.43169 33.1526 3.63471ZM28.6725 5.07357C28.6476 5.24466 28.5892 5.40917 28.5007 5.55768C28.4121 5.7062 28.2952 5.83582 28.1566 5.93914C28.0179 6.04246 27.8603 6.11745 27.6927 6.15983C27.5251 6.20221 27.3507 6.21115 27.1796 6.18614C26.4398 6.07458 25.6842 6.13909 24.974 6.37441C24.2638 6.60973 23.6191 7.00924 23.0924 7.54049C22.8453 7.78742 22.5103 7.92611 22.161 7.92605C21.8118 7.92598 21.4768 7.78717 21.2299 7.54014C20.9829 7.29311 20.8442 6.95811 20.8443 6.60883C20.8444 6.25954 20.9832 5.92459 21.2302 5.67765C22.0506 4.86143 23.0494 4.24709 24.1479 3.88316C25.2465 3.51923 26.4146 3.41568 27.56 3.58067C27.7311 3.60561 27.8956 3.66401 28.0441 3.75253C28.1926 3.84106 28.3222 3.95799 28.4255 4.09662C28.5289 4.23526 28.6038 4.3929 28.6462 4.56052C28.6886 4.72815 28.6975 4.90248 28.6725 5.07357Z" fill="#214695"/>
</svg>
