<svg width="316" height="555" viewBox="0 0 316 555" fill="none" xmlns="http://www.w3.org/2000/svg">
<circle cx="48.8324" cy="27.7104" r="27.2065" fill="#E0EAFF"/>
<circle cx="69.5102" cy="128.918" r="27.2065" fill="#E0EAFF"/>
<circle cx="76.0395" cy="230.126" r="27.2065" fill="#E0EAFF"/>
<circle cx="69.5102" cy="331.333" r="27.2065" fill="#E0EAFF"/>
<circle cx="55.3608" cy="432.541" r="27.2065" fill="#E0EAFF"/>
<circle cx="28.1557" cy="527.217" r="27.2065" fill="#E0EAFF"/>
<circle cx="110.211" cy="514.991" r="22.8907" fill="#E0EAFF"/>
<circle cx="132.03" cy="421.169" r="19.6468" fill="#E0EAFF"/>
<circle cx="141.773" cy="323.774" r="19.6468" fill="#E0EAFF"/>
<circle cx="149.08" cy="221.043" r="19.6468" fill="#E0EAFF"/>
<circle cx="141.773" cy="123.613" r="19.6468" fill="#E0EAFF"/>
<circle cx="127.16" cy="30.1441" r="19.6468" fill="#E0EAFF"/>
<circle cx="192.597" cy="21.3154" r="14.3151" fill="#E0EAFF"/>
<circle cx="203.257" cy="118.281" r="14.3151" fill="#E0EAFF"/>
<circle cx="209.228" cy="215.712" r="14.3151" fill="#E0EAFF"/>
<circle cx="207.095" cy="314.967" r="14.3151" fill="#E0EAFF"/>
<circle cx="197.658" cy="413.313" r="14.3151" fill="#E0EAFF"/>
<circle cx="188.522" cy="506.415" r="14.3151" fill="#E0EAFF"/>
<circle cx="240.427" cy="497.891" r="12.3304" fill="#E0EAFF"/>
<circle cx="248.952" cy="405.336" r="12.3304" fill="#E0EAFF"/>
<circle cx="256.566" cy="309.168" r="12.3304" fill="#E0EAFF"/>
<circle cx="262.06" cy="210.521" r="12.3304" fill="#E0EAFF"/>
<circle cx="260.234" cy="111.283" r="12.3304" fill="#E0EAFF"/>
<circle cx="252.927" cy="15.3817" r="12.3304" fill="#E0EAFF"/>
<circle cx="302.148" cy="7.83315" r="7.54678" fill="#E0EAFF"/>
<circle cx="307.931" cy="101.711" r="7.54678" fill="#E0EAFF"/>
<circle cx="308.123" cy="198.191" r="7.54678" fill="#E0EAFF"/>
<circle cx="308.123" cy="293.105" r="7.54678" fill="#E0EAFF"/>
<circle cx="300.577" cy="391.451" r="7.54678" fill="#E0EAFF"/>
<circle cx="293.031" cy="484.554" r="7.54678" fill="#E0EAFF"/>
</svg>
