<svg width="1582" height="842" viewBox="0 0 1582 842" fill="none" xmlns="http://www.w3.org/2000/svg">
<rect x="-0.453125" y="0.575195" width="1582.45" height="841.213" fill="#214695"/>
<circle cx="56.3869" cy="55.6208" r="30.4953" fill="#284FA3"/>
<circle cx="79.5637" cy="169.063" r="30.4953" fill="#284FA3"/>
<circle cx="86.883" cy="282.505" r="30.4953" fill="#284FA3"/>
<circle cx="79.5637" cy="395.947" r="30.4953" fill="#284FA3"/>
<circle cx="63.7033" cy="509.389" r="30.4953" fill="#284FA3"/>
<circle cx="33.2102" cy="615.509" r="30.4953" fill="#284FA3"/>
<circle cx="125.186" cy="601.806" r="25.6579" fill="#284FA3"/>
<circle cx="149.641" cy="496.642" r="22.0218" fill="#284FA3"/>
<circle cx="160.563" cy="387.473" r="22.0218" fill="#284FA3"/>
<circle cx="168.752" cy="272.325" r="22.0218" fill="#284FA3"/>
<circle cx="160.563" cy="163.117" r="22.0218" fill="#284FA3"/>
<circle cx="144.184" cy="58.3485" r="22.0218" fill="#284FA3"/>
<circle cx="217.531" cy="48.4523" r="16.0456" fill="#284FA3"/>
<circle cx="229.478" cy="157.14" r="16.0456" fill="#284FA3"/>
<circle cx="236.173" cy="266.349" r="16.0456" fill="#284FA3"/>
<circle cx="233.782" cy="377.602" r="16.0456" fill="#284FA3"/>
<circle cx="223.203" cy="487.836" r="16.0456" fill="#284FA3"/>
<circle cx="212.963" cy="592.194" r="16.0456" fill="#284FA3"/>
<circle cx="271.141" cy="582.639" r="13.821" fill="#284FA3"/>
<circle cx="280.698" cy="478.895" r="13.821" fill="#284FA3"/>
<circle cx="289.231" cy="371.102" r="13.821" fill="#284FA3"/>
<circle cx="295.39" cy="260.53" r="13.821" fill="#284FA3"/>
<circle cx="293.343" cy="149.296" r="13.821" fill="#284FA3"/>
<circle cx="285.155" cy="41.8012" r="13.821" fill="#284FA3"/>
<circle cx="340.324" cy="33.3404" r="8.45907" fill="#284FA3"/>
<circle cx="346.808" cy="138.567" r="8.45907" fill="#284FA3"/>
<circle cx="347.022" cy="246.71" r="8.45907" fill="#284FA3"/>
<circle cx="347.022" cy="353.097" r="8.45907" fill="#284FA3"/>
<circle cx="338.564" cy="463.332" r="8.45907" fill="#284FA3"/>
<circle cx="330.104" cy="567.689" r="8.45907" fill="#284FA3"/>
<circle cx="31.0472" cy="31.0472" r="31.0472" transform="matrix(-1 0 0 1 1558.4 47.1052)" fill="#284FA3"/>
<circle cx="31.0472" cy="31.0472" r="31.0472" transform="matrix(-1 0 0 1 1534.81 162.6)" fill="#284FA3"/>
<circle cx="31.0472" cy="31.0472" r="31.0472" transform="matrix(-1 0 0 1 1527.36 278.096)" fill="#284FA3"/>
<circle cx="31.0472" cy="31.0472" r="31.0472" transform="matrix(-1 0 0 1 1534.81 393.591)" fill="#284FA3"/>
<circle cx="31.0472" cy="31.0472" r="31.0472" transform="matrix(-1 0 0 1 1550.96 509.086)" fill="#284FA3"/>
<circle cx="31.0472" cy="31.0472" r="31.0472" transform="matrix(-1 0 0 1 1582 617.127)" fill="#284FA3"/>
<circle cx="26.1223" cy="26.1223" r="26.1223" transform="matrix(-1 0 0 1 1483.43 608.101)" fill="#284FA3"/>
<circle cx="22.4204" cy="22.4204" r="22.4204" transform="matrix(-1 0 0 1 1454.83 504.736)" fill="#284FA3"/>
<circle cx="22.4204" cy="22.4204" r="22.4204" transform="matrix(-1 0 0 1 1443.72 393.591)" fill="#284FA3"/>
<circle cx="22.4204" cy="22.4204" r="22.4204" transform="matrix(-1 0 0 1 1435.38 276.358)" fill="#284FA3"/>
<circle cx="22.4204" cy="22.4204" r="22.4204" transform="matrix(-1 0 0 1 1443.72 165.173)" fill="#284FA3"/>
<circle cx="22.4204" cy="22.4204" r="22.4204" transform="matrix(-1 0 0 1 1460.39 58.509)" fill="#284FA3"/>
<circle cx="16.336" cy="16.336" r="16.336" transform="matrix(-1 0 0 1 1379.63 54.5183)" fill="#284FA3"/>
<circle cx="16.336" cy="16.336" r="16.336" transform="matrix(-1 0 0 1 1367.47 165.173)" fill="#284FA3"/>
<circle cx="16.336" cy="16.336" r="16.336" transform="matrix(-1 0 0 1 1360.65 276.358)" fill="#284FA3"/>
<circle cx="16.336" cy="16.336" r="16.336" transform="matrix(-1 0 0 1 1363.09 389.625)" fill="#284FA3"/>
<circle cx="16.336" cy="16.336" r="16.336" transform="matrix(-1 0 0 1 1373.86 501.854)" fill="#284FA3"/>
<circle cx="16.336" cy="16.336" r="16.336" transform="matrix(-1 0 0 1 1384.28 608.101)" fill="#284FA3"/>
<circle cx="14.0711" cy="14.0711" r="14.0711" transform="matrix(-1 0 0 1 1322.79 600.638)" fill="#284FA3"/>
<circle cx="14.0711" cy="14.0711" r="14.0711" transform="matrix(-1 0 0 1 1313.06 495.017)" fill="#284FA3"/>
<circle cx="14.0711" cy="14.0711" r="14.0711" transform="matrix(-1 0 0 1 1304.37 385.272)" fill="#284FA3"/>
<circle cx="14.0711" cy="14.0711" r="14.0711" transform="matrix(-1 0 0 1 1298.1 272.7)" fill="#284FA3"/>
<circle cx="14.0711" cy="14.0711" r="14.0711" transform="matrix(-1 0 0 1 1300.18 159.451)" fill="#284FA3"/>
<circle cx="14.0711" cy="14.0711" r="14.0711" transform="matrix(-1 0 0 1 1308.52 50.0117)" fill="#284FA3"/>
<circle cx="8.61217" cy="8.61217" r="8.61217" transform="matrix(-1 0 0 1 1246.89 46.8567)" fill="#284FA3"/>
<circle cx="8.61217" cy="8.61217" r="8.61217" transform="matrix(-1 0 0 1 1240.29 153.988)" fill="#284FA3"/>
<circle cx="8.61217" cy="8.61217" r="8.61217" transform="matrix(-1 0 0 1 1240.07 264.087)" fill="#284FA3"/>
<circle cx="8.61217" cy="8.61217" r="8.61217" transform="matrix(-1 0 0 1 1240.07 372.401)" fill="#284FA3"/>
<circle cx="8.61217" cy="8.61217" r="8.61217" transform="matrix(-1 0 0 1 1248.68 484.631)" fill="#284FA3"/>
<circle cx="8.61217" cy="8.61217" r="8.61217" transform="matrix(-1 0 0 1 1257.3 590.876)" fill="#284FA3"/>
</svg>
