<svg width="43" height="43" viewBox="0 0 43 43" fill="none" xmlns="http://www.w3.org/2000/svg">
<path d="M17.1388 17.699C16.3707 17.3801 15.5895 17.1994 14.9562 17.0969C15.0586 17.7303 15.2394 18.5116 15.5582 19.2796C16.4332 21.3871 17.8923 22.4115 20.0188 22.4115H20.2706V22.1597C20.2707 20.0331 19.2463 18.574 17.1388 17.699Z" fill="#214695"/>
<path d="M22.7341 28.756V29.0079H22.9859C26.0597 29.1029 27.6321 26.5075 28.0479 23.6934C27.4145 23.7959 26.6336 23.9767 25.8659 24.2955C23.7585 25.1705 22.7341 26.6296 22.7341 28.756Z" fill="#214695"/>
<path d="M17.1388 24.2955C16.3707 23.9766 15.5895 23.7958 14.9562 23.6934C15.0586 24.3268 15.2394 25.108 15.5582 25.8761C16.4332 27.9835 17.8923 29.008 20.0188 29.008H20.2706V28.7561C20.2707 26.6296 19.2463 25.1705 17.1388 24.2955Z" fill="#214695"/>
<path d="M22.6199 12.3983C22.3023 11.6296 21.8778 10.9494 21.5024 10.4291C19.8142 12.7027 19.079 15.6577 21.3244 17.7669L21.5024 17.945L21.6801 17.7672C23.1841 16.2634 23.4915 14.5072 22.6199 12.3983Z" fill="#214695"/>
<path d="M22.7341 22.1597V22.4115H22.9859C25.1124 22.4115 26.5715 21.3871 27.4465 19.2796C27.7653 18.5115 27.9461 17.7303 28.0485 17.0969C27.4152 17.1994 26.6339 17.3801 25.8659 17.699C23.7585 18.574 22.7341 20.0331 22.7341 22.1597Z" fill="#214695"/>
<path d="M37.204 7.38982L32.2679 12.326C31.787 12.807 31.0071 12.807 30.526 12.326C30.045 11.8449 30.045 11.0651 30.526 10.5841L35.4622 5.64795C15.2106 -11.2395 -11.0798 15.0791 5.80073 35.3094L10.7369 30.3733C11.2178 29.8922 11.9977 29.8922 12.4787 30.3733C12.9598 30.8543 12.9598 31.6341 12.4787 32.1151L7.5426 37.0513C27.7942 53.9387 54.0846 27.6201 37.204 7.38982ZM29.4141 21.0961C30.0943 21.0961 30.6458 21.6476 30.6458 22.3278C30.6458 22.4184 30.6356 24.5714 29.7516 26.7472C29.5564 27.2278 28.0349 31.4712 22.9858 31.4712H22.734V34.2014C22.6734 35.8339 20.3306 35.8326 20.2706 34.2014V31.4712H20.0189C14.969 31.4712 13.4471 27.2247 13.2531 26.7472C12.3691 24.5714 12.3589 22.4184 12.3589 22.3278C12.358 21.6054 12.9771 21.0432 13.6974 21.0978C13.5361 20.7984 13.3878 20.4827 13.2531 20.1508C12.3691 17.9749 12.3589 15.8219 12.3589 15.7314C12.3589 15.0511 12.9104 14.4997 13.5906 14.4997C13.6737 14.4997 15.4903 14.5088 17.4686 15.1913C17.3608 13.9745 17.5856 12.6942 18.1385 11.3843C19.0521 9.22061 20.5672 7.69092 20.6313 7.62679C20.8622 7.39581 21.1756 7.26599 21.5022 7.26599C21.8289 7.26599 22.1422 7.39581 22.3732 7.62679C22.4372 7.69084 23.9524 9.22061 24.8659 11.3843C25.4189 12.6942 25.6437 13.9745 25.5359 15.1913C27.5142 14.5088 29.3308 14.4997 29.4139 14.4997C30.0941 14.4997 30.6456 15.0511 30.6456 15.7314C30.6456 15.8219 30.6354 17.9749 29.7515 20.1508C29.6166 20.4827 29.4683 20.7984 29.3071 21.0978C29.3665 21.0964 29.404 21.0961 29.4141 21.0961Z" fill="#214695"/>
</svg>
