<svg width="354" height="622" viewBox="0 0 354 622" fill="none" xmlns="http://www.w3.org/2000/svg">
<circle cx="54.3869" cy="31.6208" r="30.4953" fill="#284FA3"/>
<circle cx="77.5637" cy="145.063" r="30.4953" fill="#284FA3"/>
<circle cx="84.883" cy="258.505" r="30.4953" fill="#284FA3"/>
<circle cx="77.5637" cy="371.947" r="30.4953" fill="#284FA3"/>
<circle cx="61.7033" cy="485.389" r="30.4953" fill="#284FA3"/>
<circle cx="31.2102" cy="591.509" r="30.4953" fill="#284FA3"/>
<circle cx="123.186" cy="577.806" r="25.6579" fill="#284FA3"/>
<circle cx="147.641" cy="472.642" r="22.0218" fill="#284FA3"/>
<circle cx="158.563" cy="363.473" r="22.0218" fill="#284FA3"/>
<circle cx="166.752" cy="248.325" r="22.0218" fill="#284FA3"/>
<circle cx="158.563" cy="139.117" r="22.0218" fill="#284FA3"/>
<circle cx="142.184" cy="34.3485" r="22.0218" fill="#284FA3"/>
<circle cx="215.531" cy="24.4523" r="16.0456" fill="#284FA3"/>
<circle cx="227.478" cy="133.14" r="16.0456" fill="#284FA3"/>
<circle cx="234.173" cy="242.349" r="16.0456" fill="#284FA3"/>
<circle cx="231.782" cy="353.602" r="16.0456" fill="#284FA3"/>
<circle cx="221.203" cy="463.836" r="16.0456" fill="#284FA3"/>
<circle cx="210.963" cy="568.194" r="16.0456" fill="#284FA3"/>
<circle cx="269.141" cy="558.639" r="13.821" fill="#284FA3"/>
<circle cx="278.698" cy="454.895" r="13.821" fill="#284FA3"/>
<circle cx="287.231" cy="347.102" r="13.821" fill="#284FA3"/>
<circle cx="293.39" cy="236.53" r="13.821" fill="#284FA3"/>
<circle cx="291.343" cy="125.296" r="13.821" fill="#284FA3"/>
<circle cx="283.155" cy="17.8012" r="13.821" fill="#284FA3"/>
<circle cx="338.324" cy="9.34042" r="8.45907" fill="#284FA3"/>
<circle cx="344.808" cy="114.567" r="8.45907" fill="#284FA3"/>
<circle cx="345.022" cy="222.71" r="8.45907" fill="#284FA3"/>
<circle cx="345.022" cy="329.097" r="8.45907" fill="#284FA3"/>
<circle cx="336.564" cy="439.332" r="8.45907" fill="#284FA3"/>
<circle cx="328.104" cy="543.689" r="8.45907" fill="#284FA3"/>
</svg>
