<svg width="32" height="34" viewBox="0 0 32 34" fill="none" xmlns="http://www.w3.org/2000/svg">
<path d="M27.3278 7.651C24.9206 5.16101 21.8052 3.57768 18.4241 3.09602L19.3878 2.13233C19.7696 1.75053 19.7696 1.13155 19.3878 0.749743C19.006 0.368006 18.387 0.368006 18.0052 0.749743L15.5294 3.22553C15.1475 3.60727 15.1475 4.22631 15.5294 4.60811L18.0051 7.0839C18.196 7.2748 18.4462 7.37029 18.6964 7.37029C18.9465 7.37029 19.1968 7.2748 19.3877 7.0839C19.7695 6.70216 19.7695 6.08312 19.3877 5.70132L18.834 5.14764C21.5201 5.67329 23.9837 7.0051 25.9218 9.00993C28.3663 11.5385 29.7125 14.8685 29.7125 18.3864C29.7126 25.8259 23.6601 31.8783 16.2207 31.8783C8.78126 31.8783 2.72873 25.8259 2.72873 18.3864C2.72873 15.5477 3.59994 12.8322 5.24825 10.5336C6.86234 8.28256 9.08746 6.6029 11.6832 5.67622C12.1917 5.49464 12.4567 4.9353 12.2752 4.42673C12.0937 3.91822 11.5342 3.65322 11.0257 3.83473C8.0535 4.89587 5.50621 6.81831 3.65918 9.39414C1.77129 12.027 0.773438 15.1365 0.773438 18.3865C0.773438 22.5126 2.38023 26.3917 5.29785 29.3093C8.21546 32.2268 12.0946 33.8336 16.2207 33.8336C20.3468 33.8336 24.2259 32.2268 27.1435 29.3093C30.0611 26.3917 31.6679 22.5126 31.6679 18.3864C31.6679 14.3587 30.1265 10.5461 27.3278 7.651Z" fill="#404D6A"/>
<path d="M6.17597 18.3864C6.17597 23.9251 10.682 28.4311 16.2207 28.4311C21.7593 28.4311 26.2653 23.9251 26.2653 18.3864C26.2653 12.8478 21.7593 8.34167 16.2207 8.34167C10.6819 8.34167 6.17597 12.8478 6.17597 18.3864ZM16.8208 19.2566C15.4135 18.7591 14.5982 18.367 14.0066 17.903C13.2786 17.332 12.9454 16.3458 13.1369 15.3294C13.3446 14.2268 14.1136 13.349 15.1437 13.0387C15.158 13.0344 15.172 13.0309 15.1862 13.0267V12.6331C15.1862 12.0932 15.6239 11.6554 16.1638 11.6554C16.7038 11.6554 17.1415 12.0932 17.1415 12.6331V12.9645C17.8241 13.1244 18.3005 13.4364 18.4931 13.5803C18.9256 13.9037 19.0141 14.5163 18.6908 14.9488C18.3675 15.3813 17.755 15.4697 17.3224 15.1465C17.1154 14.9917 16.544 14.6588 15.7077 14.9108C15.2136 15.0597 15.0858 15.5459 15.0583 15.6915C15.0042 15.9789 15.0664 16.2494 15.2132 16.3645C15.7247 16.7656 16.6422 17.1197 17.4724 17.4131C18.991 17.9499 19.8354 19.3567 19.5737 20.9137C19.4451 21.6782 19.0606 22.3875 18.4907 22.9111C18.0988 23.2712 17.6421 23.5272 17.1415 23.6716V24.1397C17.1415 24.6796 16.7038 25.1173 16.1638 25.1173C15.6239 25.1173 15.1862 24.6796 15.1862 24.1397V23.7677C14.5358 23.6913 13.9931 23.491 13.2632 23.0135C12.8113 22.7179 12.6847 22.112 12.9802 21.6601C13.2758 21.2082 13.8818 21.0816 14.3336 21.3772C15.0104 21.8199 15.2662 21.8606 16.1573 21.8544C17.0347 21.8485 17.5437 21.1946 17.6454 20.5895C17.6952 20.294 17.7143 19.5725 16.8208 19.2566Z" fill="#404D6A"/>
</svg>
