<svg width="30" height="40" viewBox="0 0 30 40" fill="none" xmlns="http://www.w3.org/2000/svg">
<path fill-rule="evenodd" clip-rule="evenodd" d="M24.9621 3.84721V12.2739L0.271484 12.2737V3.84721C0.271484 1.9184 1.84052 0.349365 3.76933 0.349365H21.4642C23.393 0.349365 24.9621 1.9184 24.9621 3.84721ZM19.0791 5.11908C18.4641 5.11908 17.9658 5.61774 17.9658 6.23236V8.61722C17.9658 9.23213 18.4641 9.7305 19.0791 9.7305C19.694 9.7305 20.1923 9.23213 20.1923 8.61722V6.23236C20.1923 5.61774 19.694 5.11908 19.0791 5.11908ZM0.271484 32.4661V14.5005H24.9621V25.8142C24.7005 25.7881 24.4351 25.7748 24.1667 25.7748C19.7932 25.7748 16.2479 29.3202 16.2479 33.6936C16.2479 34.483 16.3634 35.2454 16.5784 35.9648H6.07533V37.2361C6.07533 37.851 5.57697 38.3494 4.96205 38.3494C4.34714 38.3494 3.84877 37.851 3.84877 37.2361V35.9648H3.76933C1.84052 35.9648 0.271484 34.3949 0.271484 32.4661ZM19.0791 25.2324C19.694 25.2324 20.1923 24.734 20.1923 24.1191V18.1569C20.1923 17.542 19.694 17.0437 19.0791 17.0437C18.4641 17.0437 17.9658 17.542 17.9658 18.1569V24.1191C17.9658 24.734 18.4641 25.2324 19.0791 25.2324Z" fill="#214695"/>
<path d="M24.2649 27.97C21.098 27.97 18.5215 30.5377 18.5215 33.6937C18.5215 36.8496 21.098 39.4173 24.2649 39.4173C27.4318 39.4173 30.0083 36.8496 30.0083 33.6936C30.0083 30.5376 27.4318 27.97 24.2649 27.97ZM26.7595 34.6333C27.1882 35.0598 27.1882 35.7524 26.7595 36.1796C26.3318 36.6058 25.6367 36.607 25.2079 36.1796L24.2649 35.2399L23.3219 36.1796C22.8935 36.6066 22.1983 36.6061 21.7703 36.1796C21.3416 35.7524 21.3416 35.0598 21.7703 34.6333L22.7133 33.6937L21.7703 32.7539C21.3416 32.3267 21.3416 31.6348 21.7703 31.2076C22.199 30.7804 22.894 30.7804 23.3219 31.2076L24.2649 32.1474L25.2079 31.2076C25.6358 30.7804 26.3308 30.7804 26.7595 31.2076C27.1882 31.6348 27.1882 32.3267 26.7595 32.7539L25.8165 33.6937L26.7595 34.6333Z" fill="#214695"/>
</svg>
