<svg width="360" height="634" viewBox="0 0 360 634" fill="none" xmlns="http://www.w3.org/2000/svg">
<circle cx="31.0472" cy="31.0472" r="31.0472" transform="matrix(-1 0 0 1 336.403 1.10522)" fill="#284FA3"/>
<circle cx="31.0472" cy="31.0472" r="31.0472" transform="matrix(-1 0 0 1 312.808 116.6)" fill="#284FA3"/>
<circle cx="31.0472" cy="31.0472" r="31.0472" transform="matrix(-1 0 0 1 305.355 232.096)" fill="#284FA3"/>
<circle cx="31.0472" cy="31.0472" r="31.0472" transform="matrix(-1 0 0 1 312.808 347.591)" fill="#284FA3"/>
<circle cx="31.0472" cy="31.0472" r="31.0472" transform="matrix(-1 0 0 1 328.955 463.086)" fill="#284FA3"/>
<circle cx="31.0472" cy="31.0472" r="31.0472" transform="matrix(-1 0 0 1 360 571.127)" fill="#284FA3"/>
<circle cx="26.1223" cy="26.1223" r="26.1223" transform="matrix(-1 0 0 1 261.435 562.101)" fill="#284FA3"/>
<circle cx="22.4204" cy="22.4204" r="22.4204" transform="matrix(-1 0 0 1 232.835 458.736)" fill="#284FA3"/>
<circle cx="22.4204" cy="22.4204" r="22.4204" transform="matrix(-1 0 0 1 221.716 347.591)" fill="#284FA3"/>
<circle cx="22.4204" cy="22.4204" r="22.4204" transform="matrix(-1 0 0 1 213.378 230.358)" fill="#284FA3"/>
<circle cx="22.4204" cy="22.4204" r="22.4204" transform="matrix(-1 0 0 1 221.716 119.173)" fill="#284FA3"/>
<circle cx="22.4204" cy="22.4204" r="22.4204" transform="matrix(-1 0 0 1 238.391 12.509)" fill="#284FA3"/>
<circle cx="16.336" cy="16.336" r="16.336" transform="matrix(-1 0 0 1 157.632 8.51831)" fill="#284FA3"/>
<circle cx="16.336" cy="16.336" r="16.336" transform="matrix(-1 0 0 1 145.469 119.173)" fill="#284FA3"/>
<circle cx="16.336" cy="16.336" r="16.336" transform="matrix(-1 0 0 1 138.653 230.358)" fill="#284FA3"/>
<circle cx="16.336" cy="16.336" r="16.336" transform="matrix(-1 0 0 1 141.087 343.625)" fill="#284FA3"/>
<circle cx="16.336" cy="16.336" r="16.336" transform="matrix(-1 0 0 1 151.857 455.854)" fill="#284FA3"/>
<circle cx="16.336" cy="16.336" r="16.336" transform="matrix(-1 0 0 1 162.283 562.101)" fill="#284FA3"/>
<circle cx="14.0711" cy="14.0711" r="14.0711" transform="matrix(-1 0 0 1 100.786 554.638)" fill="#284FA3"/>
<circle cx="14.0711" cy="14.0711" r="14.0711" transform="matrix(-1 0 0 1 91.0566 449.017)" fill="#284FA3"/>
<circle cx="14.0711" cy="14.0711" r="14.0711" transform="matrix(-1 0 0 1 82.3691 339.272)" fill="#284FA3"/>
<circle cx="14.0711" cy="14.0711" r="14.0711" transform="matrix(-1 0 0 1 76.0986 226.7)" fill="#284FA3"/>
<circle cx="14.0711" cy="14.0711" r="14.0711" transform="matrix(-1 0 0 1 78.1826 113.451)" fill="#284FA3"/>
<circle cx="14.0711" cy="14.0711" r="14.0711" transform="matrix(-1 0 0 1 86.5195 4.01172)" fill="#284FA3"/>
<circle cx="8.61217" cy="8.61217" r="8.61217" transform="matrix(-1 0 0 1 24.8926 0.856689)" fill="#284FA3"/>
<circle cx="8.61217" cy="8.61217" r="8.61217" transform="matrix(-1 0 0 1 18.292 107.988)" fill="#284FA3"/>
<circle cx="8.61217" cy="8.61217" r="8.61217" transform="matrix(-1 0 0 1 18.0742 218.087)" fill="#284FA3"/>
<circle cx="8.61217" cy="8.61217" r="8.61217" transform="matrix(-1 0 0 1 18.0742 326.401)" fill="#284FA3"/>
<circle cx="8.61217" cy="8.61217" r="8.61217" transform="matrix(-1 0 0 1 26.6846 438.631)" fill="#284FA3"/>
<circle cx="8.61217" cy="8.61217" r="8.61217" transform="matrix(-1 0 0 1 35.2979 544.876)" fill="#284FA3"/>
</svg>
