<svg width="41" height="42" viewBox="0 0 41 42" fill="none" xmlns="http://www.w3.org/2000/svg">
<path d="M10.5376 8.85934H28.9527C29.616 8.85934 30.1536 8.32172 30.1536 7.65836C30.1536 6.995 29.616 6.45738 28.9527 6.45738V2.05377C28.9527 1.39041 28.415 0.852783 27.7517 0.852783H11.7385C11.0752 0.852783 10.5376 1.39041 10.5376 2.05377V6.45738C9.8742 6.45738 9.33658 6.995 9.33658 7.65836C9.33658 8.32172 9.8742 8.85934 10.5376 8.85934Z" fill="#214695"/>
<path d="M32.5556 26.6339C28.3615 26.6339 24.9494 30.0461 24.9494 34.2401C24.9494 35.9046 25.4873 37.4459 26.3977 38.6994L37.0149 28.0823C35.7614 27.1719 34.2201 26.6339 32.5556 26.6339Z" fill="#214695"/>
<path d="M38.7135 29.7809L28.0963 40.398C29.3502 41.3084 30.8911 41.8464 32.5556 41.8464C36.7497 41.8464 40.1618 38.4342 40.1618 34.2401C40.1618 32.5757 39.6239 31.0344 38.7135 29.7809Z" fill="#214695"/>
<path d="M5.73362 20.2287C3.08051 20.2287 0.929688 22.3795 0.929688 25.0326V29.8365H10.5376V25.0326C10.5376 22.3795 8.38673 20.2287 5.73362 20.2287Z" fill="#214695"/>
<path d="M0.929688 32.2385V37.0424C0.929688 39.6956 3.08051 41.8464 5.73362 41.8464C8.38673 41.8464 10.5376 39.6956 10.5376 37.0424V32.2385H0.929688Z" fill="#214695"/>
<path d="M22.5474 34.2401C22.5474 28.7128 27.0283 24.2319 32.5556 24.2319C32.9622 24.2319 33.3628 24.257 33.7566 24.3039V18.9476H9.58928C11.6016 20.2271 12.9395 22.4764 12.9395 25.0326V37.0424C12.9395 38.8864 12.243 40.5706 11.0996 41.8464H26.0515C23.907 40.0108 22.5474 37.2845 22.5474 34.2401ZM20.9461 27.7548V28.9558C20.9461 29.6192 20.4085 30.1568 19.7451 30.1568C19.0817 30.1568 18.5441 29.6192 18.5441 28.9558V27.7548H17.3431C16.6798 27.7548 16.1422 27.2172 16.1422 26.5538C16.1422 25.8905 16.6798 25.3529 17.3431 25.3529H18.5441V24.1519C18.5441 23.4885 19.0817 22.9509 19.7451 22.9509C20.4085 22.9509 20.9461 23.4885 20.9461 24.1519V25.3529H22.1471C22.8104 25.3529 23.3481 25.8905 23.3481 26.5538C23.3481 27.2172 22.8104 27.7548 22.1471 27.7548H20.9461Z" fill="#214695"/>
<path d="M27.7517 11.2613H11.7385C8.67134 11.2613 6.13583 13.5732 5.77835 16.5456H33.7119C33.3544 13.5732 30.8189 11.2613 27.7517 11.2613Z" fill="#214695"/>
</svg>
