<svg width="40" height="29" viewBox="0 0 40 29" fill="none" xmlns="http://www.w3.org/2000/svg">
<path d="M39.0997 13.5911L36.0203 6.62411C35.9125 6.37703 35.7353 6.16654 35.5102 6.01814C35.2851 5.86975 35.0219 5.78983 34.7523 5.78807H27.2976L27.7435 1.76115C27.7654 1.56566 27.7458 1.36775 27.6857 1.18042C27.6257 0.993096 27.5266 0.820606 27.3952 0.674299C27.2649 0.529953 27.1058 0.414471 26.9283 0.335278C26.7507 0.256086 26.5585 0.214937 26.364 0.214478H7.17695C6.8074 0.214478 6.45298 0.361282 6.19167 0.622595C5.93036 0.883907 5.78355 1.23832 5.78355 1.60788C5.78355 1.97743 5.93036 2.33184 6.19167 2.59316C6.45298 2.85447 6.8074 3.00127 7.17695 3.00127H14.1439C14.5135 3.00127 14.8679 3.14808 15.1292 3.40939C15.3905 3.6707 15.5373 4.02512 15.5373 4.39467C15.5373 4.76422 15.3905 5.11864 15.1292 5.37995C14.8679 5.64127 14.5135 5.78807 14.1439 5.78807H4.39015C4.0206 5.78807 3.66619 5.93487 3.40487 6.19619C3.14356 6.4575 2.99676 6.81192 2.99676 7.18147C2.99676 7.55102 3.14356 7.90544 3.40487 8.16675C3.66619 8.42806 4.0206 8.57487 4.39015 8.57487H18.3241C18.6937 8.57487 19.0481 8.72167 19.3094 8.98298C19.5707 9.2443 19.7175 9.59871 19.7175 9.96826C19.7175 10.3378 19.5707 10.6922 19.3094 10.9535C19.0481 11.2149 18.6937 11.3617 18.3241 11.3617H8.57035C8.2008 11.3617 7.84638 11.5085 7.58507 11.7698C7.32376 12.0311 7.17695 12.3855 7.17695 12.7551C7.17695 13.1246 7.32376 13.479 7.58507 13.7403C7.84638 14.0017 8.2008 14.1485 8.57035 14.1485H14.1439C14.5135 14.1485 14.8679 14.2953 15.1292 14.5566C15.3905 14.8179 15.5373 15.1723 15.5373 15.5419C15.5373 15.9114 15.3905 16.2658 15.1292 16.5271C14.8679 16.7885 14.5135 16.9353 14.1439 16.9353H2.99676C2.6272 16.9353 2.27279 17.0821 2.01148 17.3434C1.75016 17.6047 1.60336 17.9591 1.60336 18.3287C1.60336 18.6982 1.75016 19.0526 2.01148 19.3139C2.27279 19.5752 2.6272 19.722 2.99676 19.722H5.78355C6.15311 19.722 6.50752 19.8689 6.76883 20.1302C7.03015 20.3915 7.17695 20.7459 7.17695 21.1154C7.17695 21.485 7.03015 21.8394 6.76883 22.1007C6.50752 22.362 6.15311 22.5088 5.78355 22.5088H4.39015C4.0206 22.5088 3.66619 22.6556 3.40487 22.917C3.14356 23.1783 2.99676 23.5327 2.99676 23.9022C2.99676 24.2718 3.14356 24.6262 3.40487 24.8875C3.66619 25.1488 4.0206 25.2956 4.39015 25.2956H8.36134C8.5118 25.8833 8.79817 26.4274 9.19738 26.8841C9.53567 27.2623 9.9502 27.5647 10.4137 27.7712C10.8772 27.9777 11.3792 28.0838 11.8866 28.0824C12.7453 28.0579 13.5776 27.7803 14.2792 27.2846C14.9807 26.7888 15.5202 26.0969 15.83 25.2956H26.4755C26.626 25.8833 26.9123 26.4274 27.3116 26.8841C27.6498 27.2623 28.0644 27.5647 28.5279 27.7712C28.9914 27.9777 29.4934 28.0838 30.0008 28.0824C30.8595 28.0579 31.6918 27.7803 32.3933 27.2846C33.0949 26.7888 33.6343 26.0969 33.9441 25.2956H36.7309C37.0754 25.2977 37.4084 25.1721 37.6657 24.9431C37.9231 24.7141 38.0864 24.3979 38.1243 24.0555L39.1972 14.3017C39.2354 14.0604 39.2015 13.8132 39.0997 13.5911ZM11.8866 25.2956C11.7711 25.3006 11.6559 25.2794 11.5497 25.2336C11.4436 25.1877 11.3491 25.1184 11.2735 25.0309C11.1642 24.8956 11.0841 24.739 11.0386 24.5711C10.993 24.4031 10.9828 24.2276 11.0088 24.0555C11.0444 23.6643 11.2133 23.2972 11.4872 23.0156C11.7612 22.734 12.1236 22.5551 12.5137 22.5088C12.6292 22.5039 12.7444 22.5251 12.8506 22.5709C12.9567 22.6168 13.0512 22.6861 13.1268 22.7736C13.2361 22.9089 13.3162 23.0655 13.3617 23.2334C13.4073 23.4014 13.4175 23.5769 13.3915 23.749C13.3559 24.1402 13.187 24.5073 12.9131 24.7889C12.6391 25.0704 12.2767 25.2493 11.8866 25.2956ZM30.0008 25.2956C29.8853 25.3006 29.7701 25.2794 29.6639 25.2336C29.5577 25.1877 29.4633 25.1184 29.3877 25.0309C29.2783 24.8956 29.1983 24.739 29.1527 24.5711C29.1072 24.4031 29.097 24.2276 29.123 24.0555C29.1586 23.6643 29.3275 23.2972 29.6014 23.0156C29.8754 22.734 30.2377 22.5551 30.6278 22.5088C30.7434 22.5039 30.8586 22.5251 30.9647 22.5709C31.0709 22.6168 31.1653 22.6861 31.2409 22.7736C31.3503 22.9089 31.4303 23.0655 31.4759 23.2334C31.5215 23.4014 31.5316 23.5769 31.5057 23.749C31.4701 24.1402 31.3012 24.5073 31.0272 24.7889C30.7533 25.0704 30.3909 25.2493 30.0008 25.2956ZM36.2711 15.5419H30.1123C29.9178 15.5414 29.7257 15.5002 29.5481 15.4211C29.3705 15.3419 29.2114 15.2264 29.0812 15.082C28.9497 14.9357 28.8507 14.7632 28.7906 14.5759C28.7306 14.3886 28.7109 14.1907 28.7328 13.9952L29.1926 9.81499C29.2337 9.47513 29.3985 9.16228 29.6555 8.93612C29.9125 8.70996 30.2437 8.58633 30.586 8.5888H33.8327L36.4383 14.3714L36.2711 15.5419Z" fill="#404D6A"/>
<path d="M2.99676 14.1485C3.36631 14.1485 3.72073 14.0017 3.98204 13.7403C4.24335 13.479 4.39015 13.1246 4.39015 12.7551C4.39015 12.3855 4.24335 12.0311 3.98204 11.7698C3.72073 11.5085 3.36631 11.3617 2.99676 11.3617H1.60336C1.23381 11.3617 0.879391 11.5085 0.618078 11.7698C0.356765 12.0311 0.209961 12.3855 0.209961 12.7551C0.209961 13.1246 0.356765 13.479 0.618078 13.7403C0.879391 14.0017 1.23381 14.1485 1.60336 14.1485H2.99676Z" fill="#404D6A"/>
</svg>
