<svg width="27" height="22" viewBox="0 0 27 22" fill="none" xmlns="http://www.w3.org/2000/svg">
<g id="Vector">
<path fill-rule="evenodd" clip-rule="evenodd" d="M14.0377 0.167687C11.9846 0.0993129 9.91027 0.659465 8.11939 1.85489C6.10797 3.19893 4.7023 5.1837 4.05483 7.40248C3.87603 7.38066 3.66192 7.39029 3.40768 7.46219C2.45847 7.73151 1.74456 8.50931 1.42356 9.19433C1.00721 10.087 0.831623 11.2677 1.01684 12.4866C1.20078 13.7016 1.71406 14.7031 2.35607 15.3249C3.00001 15.947 3.72708 16.1492 4.44934 15.9974C5.52471 15.7679 6.0579 15.5961 5.90735 14.5943L5.17834 9.73779C5.32536 7.10941 6.6861 4.63511 8.96202 3.11354C12.0084 1.0787 16.0023 1.20903 18.908 3.43968C20.9294 4.98949 22.103 7.31164 22.2384 9.74935L21.7287 13.1465C20.5917 16.258 17.773 18.4133 14.5112 18.7192H12.3393C11.7788 18.7192 11.3275 19.1705 11.3275 19.7303V20.2638C11.3275 20.824 11.7788 21.2753 12.3393 21.2753H15.0778C15.638 21.2753 16.0874 20.824 16.0874 20.2638V19.9849C18.5469 19.3846 20.6938 17.873 22.0917 15.765L22.969 15.9977C23.683 16.1829 24.4187 15.947 25.0623 15.3252C25.7043 14.7031 26.2173 13.7019 26.4015 12.4869C26.5874 11.268 26.4067 10.0893 25.9952 9.19465C25.582 8.30001 24.9667 7.73184 24.2563 7.528C23.9587 7.44229 23.6358 7.41083 23.3587 7.40248C22.7732 5.39621 21.5679 3.57162 19.8306 2.23945C18.1225 0.928788 16.0909 0.235098 14.0377 0.167687Z" fill="#404D6A"/>
<path fill-rule="evenodd" clip-rule="evenodd" d="M17.243 8.90478C17.9668 8.90478 18.5536 9.49158 18.5552 10.2174C18.5536 10.9412 17.9668 11.5296 17.243 11.5296C16.5172 11.5296 15.9288 10.9412 15.9288 10.2174C15.9288 9.4919 16.5175 8.90478 17.243 8.90478ZM13.7087 8.90478C14.4342 8.90478 15.021 9.49158 15.021 10.2174C15.021 10.9412 14.4342 11.5296 13.7087 11.5296C12.9826 11.5296 12.3958 10.9412 12.3958 10.2174C12.3958 9.4919 12.9826 8.90478 13.7087 8.90478ZM10.1757 8.90478C10.8996 8.90478 11.488 9.49158 11.488 10.2174C11.488 10.9412 10.8996 11.5296 10.1757 11.5296C9.45027 11.5296 8.86315 10.9412 8.86315 10.2174C8.86315 9.4919 9.45027 8.90478 10.1757 8.90478ZM13.7087 3.26731C9.85987 3.26731 6.75833 6.26677 6.75833 10.2174C6.75833 12.1148 7.47577 13.7918 8.64455 15.0222L8.22981 16.8814C8.09306 17.4933 8.51743 17.9048 9.06731 17.5985L10.8829 16.5858C11.7458 16.9604 12.7001 17.1674 13.7087 17.1674C17.5588 17.1674 20.6585 14.1699 20.6585 10.2174C20.6585 6.26677 17.5588 3.26731 13.7087 3.26731Z" fill="#404D6A"/>
</g>
</svg>
