<svg width="43" height="35" viewBox="0 0 43 35" fill="none" xmlns="http://www.w3.org/2000/svg">
<path fill-rule="evenodd" clip-rule="evenodd" d="M22.2589 0.461262C18.904 0.349537 15.5145 1.26484 12.5881 3.21819C9.30141 5.41439 7.0045 8.65755 5.94652 12.2831C5.65436 12.2474 5.3045 12.2632 4.88907 12.3807C3.33804 12.8207 2.17149 14.0917 1.64696 15.211C0.966643 16.6697 0.679726 18.599 0.982379 20.5906C1.28293 22.5759 2.12166 24.2125 3.17071 25.2285C4.22292 26.245 5.41098 26.5755 6.59117 26.3274C8.34834 25.9523 9.21958 25.6717 8.97358 24.0347L7.78237 16.099C8.02261 11.8042 10.2461 7.76113 13.965 5.27487C18.9428 1.94988 25.469 2.16283 30.217 5.80779C33.52 8.34021 35.4376 12.1347 35.659 16.1179L34.826 21.669C32.9682 26.7533 28.3623 30.275 23.0325 30.7748H19.4836C18.5677 30.7748 17.8303 31.5123 17.8303 32.4271V33.2989C17.8303 34.2142 18.5677 34.9517 19.4836 34.9517H23.9583C24.8736 34.9517 25.608 34.2142 25.608 33.2989V32.8431C29.6269 31.8622 33.135 29.3922 35.4193 25.9476L36.8528 26.3279C38.0194 26.6305 39.2216 26.245 40.2733 25.229C41.3223 24.2125 42.1605 22.5765 42.4616 20.5911C42.7653 18.5995 42.47 16.6734 41.7976 15.2115C41.1225 13.7497 40.117 12.8213 38.9562 12.4882C38.4699 12.3481 37.9423 12.2967 37.4896 12.2831C36.5329 9.00479 34.5633 6.02337 31.7245 3.84657C28.9335 1.70492 25.6137 0.571413 22.2589 0.461262Z" fill="#404D6A"/>
<path fill-rule="evenodd" clip-rule="evenodd" d="M27.4963 14.7379C28.6791 14.7379 29.6379 15.6967 29.6406 16.8827C29.6379 18.0655 28.6791 19.027 27.4963 19.027C26.3103 19.027 25.3489 18.0655 25.3489 16.8827C25.3489 15.6973 26.3108 14.7379 27.4963 14.7379ZM21.7212 14.7379C22.9066 14.7379 23.8655 15.6967 23.8655 16.8827C23.8655 18.0655 22.9066 19.027 21.7212 19.027C20.5347 19.027 19.5759 18.0655 19.5759 16.8827C19.5759 15.6973 20.5347 14.7379 21.7212 14.7379ZM15.9482 14.7379C17.1311 14.7379 18.0925 15.6967 18.0925 16.8827C18.0925 18.0655 17.1311 19.027 15.9482 19.027C14.7628 19.027 13.8034 18.0655 13.8034 16.8827C13.8034 15.6973 14.7628 14.7379 15.9482 14.7379ZM21.7212 5.52611C15.4321 5.52611 10.3641 10.4273 10.3641 16.8827C10.3641 19.9832 11.5364 22.7233 13.4462 24.7338L12.7685 27.7719C12.5451 28.7717 13.2385 29.4441 14.137 28.9437L17.1038 27.2888C18.5137 27.901 20.0731 28.2393 21.7212 28.2393C28.0124 28.2393 33.0773 23.3412 33.0773 16.8827C33.0773 10.4273 28.0124 5.52611 21.7212 5.52611Z" fill="#404D6A"/>
</svg>
