<svg width="57" height="39" viewBox="0 0 57 39" fill="none" xmlns="http://www.w3.org/2000/svg">
<path d="M54.3343 3.56986C50.8098 -0.630799 44.5248 -1.18077 40.3243 2.34416L28.8974 11.9325C28.6388 12.1494 28.4638 12.4287 28.3746 12.7298C28.2853 12.4288 28.1104 12.1494 27.8518 11.9325L16.4249 2.34416C12.2149 -1.18862 5.94816 -0.641076 2.41494 3.56997C-1.11784 7.77991 -0.570192 14.0469 3.64063 17.58L15.0675 27.1683C15.7684 27.7567 16.8142 27.6652 17.4025 26.9641L28.0562 14.2675C28.2065 14.0883 28.312 13.8864 28.3747 13.6755C28.4375 13.8863 28.5428 14.0883 28.6933 14.2675L39.347 26.9641C39.9352 27.6652 40.9809 27.7567 41.6819 27.1683L53.1088 17.58C57.3188 14.0474 57.8677 7.7808 54.3343 3.56986Z" fill="white"/>
<path d="M21.745 31.4337C22.6604 31.4337 23.4024 30.6917 23.4024 29.7763C23.4024 28.8609 22.6604 28.1189 21.745 28.1189C20.8296 28.1189 20.0876 28.8609 20.0876 29.7763C20.0876 30.6917 20.8296 31.4337 21.745 31.4337Z" fill="white"/>
<path d="M28.3746 31.4337C29.29 31.4337 30.0321 30.6917 30.0321 29.7763C30.0321 28.8609 29.29 28.1189 28.3746 28.1189C27.4592 28.1189 26.7172 28.8609 26.7172 29.7763C26.7172 30.6917 27.4592 31.4337 28.3746 31.4337Z" fill="white"/>
<path d="M35.0042 31.4337C35.9196 31.4337 36.6617 30.6917 36.6617 29.7763C36.6617 28.8609 35.9196 28.1189 35.0042 28.1189C34.0889 28.1189 33.3468 28.8609 33.3468 29.7763C33.3468 30.6917 34.0889 31.4337 35.0042 31.4337Z" fill="white"/>
<path d="M28.3746 24.8041C29.29 24.8041 30.0321 24.062 30.0321 23.1467C30.0321 22.2313 29.29 21.4892 28.3746 21.4892C27.4592 21.4892 26.7172 22.2313 26.7172 23.1467C26.7172 24.062 27.4592 24.8041 28.3746 24.8041Z" fill="white"/>
<path d="M18.4301 38.0634C19.3455 38.0634 20.0876 37.3213 20.0876 36.4059C20.0876 35.4905 19.3455 34.7485 18.4301 34.7485C17.5148 34.7485 16.7727 35.4905 16.7727 36.4059C16.7727 37.3213 17.5148 38.0634 18.4301 38.0634Z" fill="white"/>
<path d="M25.0598 38.0634C25.9751 38.0634 26.7172 37.3213 26.7172 36.4059C26.7172 35.4905 25.9751 34.7485 25.0598 34.7485C24.1444 34.7485 23.4023 35.4905 23.4023 36.4059C23.4023 37.3213 24.1444 38.0634 25.0598 38.0634Z" fill="white"/>
<path d="M31.6895 38.0634C32.6049 38.0634 33.3469 37.3213 33.3469 36.4059C33.3469 35.4905 32.6049 34.7485 31.6895 34.7485C30.7741 34.7485 30.0321 35.4905 30.0321 36.4059C30.0321 37.3213 30.7741 38.0634 31.6895 38.0634Z" fill="white"/>
<path d="M38.3191 38.0634C39.2345 38.0634 39.9765 37.3213 39.9765 36.4059C39.9765 35.4905 39.2345 34.7485 38.3191 34.7485C37.4037 34.7485 36.6617 35.4905 36.6617 36.4059C36.6617 37.3213 37.4037 38.0634 38.3191 38.0634Z" fill="white"/>
</svg>
