<svg width="55" height="55" viewBox="0 0 55 55" fill="none" xmlns="http://www.w3.org/2000/svg">
<path d="M15.7746 36.6975C16.4266 34.7393 15.3678 32.6235 13.4098 31.9716L13.0757 31.8603L13.1869 31.5262C13.8388 29.5681 12.7801 27.4523 10.8221 26.8003C8.86403 26.1484 6.7482 27.2071 6.09629 29.1652L5.2935 31.5762L2.59654 32.9258C0.751029 33.8493 0.00359762 36.0941 0.927086 37.9396C1.85057 39.7851 4.09539 40.5327 5.941 39.6091L8.63796 38.2594L11.0489 39.0622C13.0068 39.7144 15.1226 38.6556 15.7746 36.6975Z" fill="white"/>
<path d="M6.77095 13.7272L6.24037 16.6959C5.87724 18.7274 7.22982 20.6687 9.26134 21.0318C11.2929 21.3949 13.2341 20.0424 13.5972 18.0108L14.1278 15.0421L16.2127 13.5895C17.906 12.4097 18.3223 10.0807 17.1425 8.38735C15.9627 6.6941 13.6337 6.27781 11.9405 7.45757L11.6516 7.6589L11.4503 7.37002C10.2704 5.67666 7.94138 5.26037 6.24813 6.44013C4.55487 7.6199 4.13859 9.94891 5.31835 11.6422L6.77095 13.7272Z" fill="white"/>
<path d="M30.6171 23.5168L28.079 23.3932L26.0528 21.1596C24.6661 19.6311 22.303 19.5162 20.7745 20.9027C19.246 22.2894 19.131 24.6525 20.5176 26.181L22.5439 28.4146L22.4203 30.9526C22.32 33.0139 23.9098 34.7662 25.971 34.8665C28.0323 34.9669 29.7846 33.3771 29.8849 31.3158L29.902 30.9641L30.2537 30.9812C32.315 31.0816 34.0673 29.4918 34.1676 27.4305C34.2681 25.3694 32.6784 23.6171 30.6171 23.5168Z" fill="white"/>
<path d="M51.7213 19.6163L48.8765 18.6154L47.778 16.3241C46.8858 14.4632 44.6539 13.6779 42.7931 14.57C40.9322 15.4622 40.1469 17.6941 41.039 19.5549L41.1913 19.8724L40.8738 20.0247C39.0128 20.9168 38.2276 23.1487 39.1197 25.0096C40.0118 26.8705 42.2436 27.6558 44.1046 26.7636L46.3959 25.6651L49.2407 26.6661C51.1874 27.351 53.3209 26.3282 54.0059 24.3815C54.6909 22.4348 53.668 20.3014 51.7213 19.6163Z" fill="white"/>
<path d="M25.7853 39.0659C23.969 38.0861 21.7023 38.7641 20.7224 40.5805L19.2905 43.2347L16.8561 43.9629C14.8789 44.5544 13.7557 46.6367 14.3471 48.6138C14.9386 50.591 17.0209 51.7142 18.998 51.1228L19.3353 51.0219L19.4363 51.3593C20.0278 53.3365 22.1101 54.4598 24.0872 53.8682C26.0643 53.2767 27.1876 51.1945 26.5961 49.2174L25.8679 46.7829L27.2997 44.1287C28.2796 42.3124 27.6015 40.0458 25.7853 39.0659Z" fill="white"/>
<path d="M46.6564 35.8261C44.8321 34.8613 42.571 35.5581 41.6062 37.3824L41.4416 37.6937L41.1302 37.5291C39.3059 36.5643 37.0449 37.2611 36.0801 39.0854C35.1152 40.9097 35.812 43.1707 37.6364 44.1355L39.8826 45.3234L40.7708 48.2055C41.3786 50.1777 43.4701 51.2838 45.4422 50.676C47.4144 50.0683 48.5206 47.9768 47.9128 46.0046L47.0247 43.1226L48.2126 40.8764C49.1775 39.052 48.4807 36.7909 46.6564 35.8261Z" fill="white"/>
<path d="M24.4511 9.98823C24.9721 11.9852 27.0133 13.1816 29.0101 12.6607L29.3508 12.5717L29.4397 12.9125C29.9606 14.9094 32.0018 16.1059 33.9987 15.5849C35.9955 15.064 37.1921 13.0229 36.6711 11.026L36.0297 8.56719L37.5548 5.96544C38.5984 4.18505 38.0012 1.89567 36.2208 0.852015C34.4404 -0.191642 32.151 0.405632 31.1073 2.18602L29.5822 4.78777L27.1235 5.42919C25.1267 5.95023 23.9302 7.9913 24.4511 9.98823Z" fill="white"/>
</svg>
