<svg width="54" height="54" viewBox="0 0 54 54" fill="none" xmlns="http://www.w3.org/2000/svg">
<path d="M27.3745 0.314209C12.8043 0.314209 0.947266 12.1712 0.947266 26.7414C0.947266 41.3116 12.8043 53.1686 27.3745 53.1686C41.9446 53.1686 53.8016 41.3116 53.8016 26.7414C53.8016 12.1712 41.9446 0.314209 27.3745 0.314209ZM37.9806 16.4788C38.9408 17.1659 39.2314 18.3552 38.6765 19.3065C36.6592 22.7861 33.8843 25.7988 30.4312 28.2477C30.0172 28.5473 29.5151 28.6882 29.0041 28.6882C28.4668 28.6882 27.9206 28.5208 27.4625 28.1949C26.8459 27.7544 26.4847 27.0938 26.4935 26.3802C26.4935 25.7107 26.8195 25.0941 27.3833 24.6977C30.3167 22.6099 32.6775 20.0553 34.3865 17.1043C34.7036 16.5669 35.2321 16.1881 35.884 16.0472C36.6063 15.8886 37.3639 16.0472 37.9717 16.4788H37.9806ZM18.724 10.4975C22.829 7.4055 27.4361 5.19443 32.4132 3.91712C33.6113 3.6088 34.871 4.19901 35.4083 5.31776C35.7519 6.02248 35.7519 6.84172 35.4259 7.54645C35.0912 8.25998 34.4657 8.77972 33.7082 8.97352C29.4005 10.0746 25.4188 11.995 21.8688 14.6642C21.4107 15.0077 20.8646 15.1927 20.3008 15.1927C20.0982 15.1927 19.8867 15.1663 19.6841 15.1222C18.9178 14.9373 18.2923 14.4263 17.9488 13.7216C17.4114 12.6028 17.7373 11.2551 18.7328 10.5063L18.724 10.4975ZM24.7317 21.456C24.7317 22.9095 23.5425 24.0987 22.089 24.0987C20.6355 24.0987 19.4463 22.9095 19.4463 21.456C19.4463 20.0025 20.6355 18.8132 22.089 18.8132C23.5425 18.8132 24.7317 20.0025 24.7317 21.456ZM12.9804 34.1939C13.1302 34.9602 12.9364 35.7531 12.4431 36.3609C11.9498 36.9687 11.2098 37.3123 10.4258 37.3123C9.18374 37.3123 8.10903 36.4314 7.87119 35.2157C6.86695 30.1769 6.86695 25.0677 7.87119 20.0289C8.11784 18.8132 9.19255 17.9323 10.4258 17.9323C11.2098 17.9323 11.9498 18.2847 12.4431 18.8837C12.9364 19.4915 13.139 20.2755 12.9804 21.0507C12.1083 25.4112 12.1083 29.8334 12.9804 34.1939ZM12.399 16.1705C10.9455 16.1705 9.75633 14.9813 9.75633 13.5278C9.75633 12.0743 10.9455 10.8851 12.399 10.8851C13.8525 10.8851 15.0418 12.0743 15.0418 13.5278C15.0418 14.9813 13.8525 16.1705 12.399 16.1705ZM19.4463 46.1213C17.9928 46.1213 16.8036 44.9321 16.8036 43.4786C16.8036 42.0251 17.9928 40.8359 19.4463 40.8359C20.8998 40.8359 22.089 42.0251 22.089 43.4786C22.089 44.9321 20.8998 46.1213 19.4463 46.1213ZM38.9584 44.1129C38.4474 44.8528 37.6194 45.2404 36.7913 45.2404C36.3156 45.2404 35.84 45.1171 35.4171 44.8528C28.4403 42.7651 22.1947 38.4134 17.8166 32.5818C16.7243 31.7273 16.4864 30.1505 17.2881 28.9965C18.1249 27.7985 19.7722 27.5078 20.9703 28.3358C21.0495 28.3887 21.12 28.4592 21.1729 28.5296C25.3484 34.141 31.3473 38.3253 38.0598 40.3074C38.1479 40.3338 38.236 40.3778 38.3153 40.4307C39.5133 41.2675 39.804 42.9148 38.976 44.1129H38.9584ZM38.8262 33.7886C37.3727 33.7886 36.1835 32.5994 36.1835 31.1459C36.1835 29.6924 37.3727 28.5032 38.8262 28.5032C40.2797 28.5032 41.4689 29.6924 41.4689 31.1459C41.4689 32.5994 40.2797 33.7886 38.8262 33.7886ZM40.6497 16.1705C39.1962 16.1705 38.007 14.9813 38.007 13.5278C38.007 12.0743 39.1962 10.8851 40.6497 10.8851C42.1032 10.8851 43.2924 12.0743 43.2924 13.5278C43.2924 14.9813 42.1032 16.1705 40.6497 16.1705ZM46.1466 38.0522C45.988 38.0522 45.8294 38.0346 45.6709 38.0082C44.9838 37.8672 44.42 37.4532 44.1557 36.8806C43.9267 36.3873 43.9531 35.8412 44.2086 35.3743C45.4154 33.2161 46.0408 30.9081 46.0761 28.5208C46.0761 28.0099 46.3139 27.5518 46.7368 27.2171C47.2301 26.8207 47.9348 26.6621 48.6043 26.7942C49.5909 26.988 50.2956 27.7721 50.278 28.653C50.234 31.5864 49.4588 34.4141 47.9877 37.0656C47.6441 37.6911 46.9218 38.061 46.1466 38.061V38.0522Z" fill="white"/>
</svg>
