<svg width="53" height="53" viewBox="0 0 53 53" fill="none" xmlns="http://www.w3.org/2000/svg">
<path d="M49.5038 0.429932C39.0273 0.429932 26.3746 7.95242 26.3746 17.2939C26.3746 17.3486 26.3897 17.5044 26.3967 17.5591C26.4142 18.0894 26.7794 18.5453 27.2934 18.6756C27.804 18.807 28.3472 18.5826 28.6146 18.1243C31.7466 12.7813 36.3406 8.67234 42.6617 5.56119C43.2468 5.2681 43.9702 5.52859 44.2539 6.10314C44.3945 6.3893 44.4155 6.71253 44.3132 7.01377C44.2108 7.315 43.998 7.55807 43.713 7.69763C36.6093 11.1958 31.8366 16.0104 29.115 22.4059C29.0708 22.471 29.0148 22.5252 28.9832 22.6007C27.2759 26.7178 26.3979 31.6037 26.3745 37.1235C25.9544 36.0166 25.4582 34.9637 24.9244 33.937C25.871 32.4848 26.3745 30.9047 26.3745 29.2033C26.3745 19.8618 13.7219 12.3393 3.24535 12.3393C1.55205 12.3394 0.173828 13.7175 0.173828 15.4109C0.173828 25.8875 7.69631 38.5401 17.0389 38.5401C19.3373 38.5401 21.4201 37.6408 23.2502 35.9186C25.3373 40.3191 26.3745 45.4868 26.3745 51.6406C26.3745 52.2989 26.9072 52.8315 27.5655 52.8315C28.2238 52.8315 28.7565 52.2989 28.7565 51.6406V37.3492C28.7565 32.6882 29.4255 28.5611 30.674 24.9834C32.2101 26.0706 33.8961 26.6307 35.7113 26.6307C45.0528 26.6307 52.5753 13.9781 52.5753 3.50156C52.5753 1.80815 51.1972 0.429932 49.5038 0.429932Z" fill="white"/>
</svg>
