<svg width="32" height="49" viewBox="0 0 32 49" fill="none" xmlns="http://www.w3.org/2000/svg">
<path d="M31.187 16.0369V5.40164C31.187 2.96731 29.2067 0.987061 26.7724 0.987061H4.43997C2.00564 0.987061 0.0253906 2.96731 0.0253906 5.40164V16.0365L31.187 16.0369ZM22.3571 8.4119C22.3571 7.63619 22.9861 7.00685 23.7621 7.00685C24.5382 7.00685 25.1672 7.63619 25.1672 8.4119V11.4218C25.1672 12.1979 24.5382 12.8268 23.7621 12.8268C22.9861 12.8268 22.3571 12.1979 22.3571 11.4218V8.4119Z" fill="white"/>
<path d="M0.0253906 18.847V41.5211C0.0253906 43.9554 2.00564 45.9368 4.43997 45.9368H4.54023V47.5412C4.54023 48.3173 5.16921 48.9463 5.94529 48.9463C6.72136 48.9463 7.35034 48.3173 7.35034 47.5412V45.9368H23.862V47.5412C23.862 48.3173 24.491 48.9463 25.2671 48.9463C26.0432 48.9463 26.6721 48.3173 26.6721 47.5412V45.9368H26.7724C29.2067 45.9368 31.187 43.9554 31.187 41.5211V18.847H0.0253906ZM25.1672 30.9865C25.1672 31.7625 24.5382 32.3915 23.7621 32.3915C22.9861 32.3915 22.3571 31.7625 22.3571 30.9865V23.4617C22.3571 22.6857 22.9861 22.0567 23.7621 22.0567C24.5382 22.0567 25.1672 22.6857 25.1672 23.4617V30.9865Z" fill="white"/>
</svg>
