<svg width="40" height="40" viewBox="0 0 40 40" fill="none" xmlns="http://www.w3.org/2000/svg">
<path d="M20.4043 16.5966C28.4573 16.5966 35.009 10.0449 35.009 1.99194C35.009 1.36094 34.4974 0.849365 33.8664 0.849365C27.8202 0.849365 22.6204 4.54271 20.4043 9.79171C18.1882 4.54271 12.9884 0.849365 6.94221 0.849365C6.31121 0.849365 5.79964 1.36094 5.79964 1.99194C5.79964 10.045 12.3513 16.5966 20.4043 16.5966Z" fill="#214695"/>
<path d="M29.583 34.954C30.214 34.954 30.7256 34.4425 30.7256 33.8114V27.0804C30.5754 23.1337 24.9177 23.1367 24.7689 27.0804V33.8114C24.8252 35.3258 26.9984 35.3247 27.0541 33.8114V32.0984H28.4404V33.8114C28.4404 34.4425 28.952 34.954 29.583 34.954ZM27.0541 29.8133V27.0804C27.0868 26.1628 28.4081 26.1634 28.4404 27.0804V29.8133H27.0541Z" fill="#214695"/>
<path d="M38.7617 24.1021C38.1307 24.1021 37.6191 24.6137 37.6191 25.2447V29.509L34.8584 24.6778C34.6014 24.228 34.0737 24.0073 33.5732 24.1404C33.0724 24.2733 32.7239 24.7265 32.7239 25.2446V33.8115C32.7801 35.3258 34.9534 35.3247 35.009 33.8115V29.5471L37.7697 34.3784C37.8824 34.5756 38.327 35.1092 39.055 34.9158C39.5557 34.7829 39.9043 34.3296 39.9043 33.8115V25.2447C39.9043 24.6136 39.3927 24.1021 38.7617 24.1021Z" fill="#214695"/>
<path d="M14.2852 26.3873C15.7996 26.3311 15.7984 24.1578 14.2852 24.1021H10.6137C9.98269 24.1021 9.47112 24.6137 9.47112 25.2447V33.8115C9.47112 34.4425 9.98269 34.9541 10.6137 34.9541H14.2852C15.7996 34.8979 15.7984 32.7246 14.2852 32.6689H11.7563V30.6707H13.0613C14.5757 30.6144 14.5746 28.4412 13.0613 28.3855H11.7563V26.3873H14.2852Z" fill="#214695"/>
<path d="M5.84389 24.9308L4.49489 29.6525L3.14581 24.9308C2.97244 24.324 2.33999 23.9725 1.73328 24.1461C1.12657 24.3194 0.775187 24.9518 0.948554 25.5586L3.39626 34.1254C3.71405 35.223 5.27603 35.2224 5.59351 34.1254L8.04115 25.5586C8.21444 24.9518 7.86313 24.3194 7.25642 24.1461C6.64979 23.973 6.01726 24.3241 5.84389 24.9308Z" fill="#214695"/>
<path d="M21.6281 28.5286C22.2591 28.5286 22.7707 28.0167 22.7707 27.3857C22.6055 23.0347 16.3661 23.0372 16.2021 27.3864V31.6697C16.3678 36.0219 22.6066 36.0187 22.7707 31.6697V30.7519C22.7707 30.1208 22.2591 29.6093 21.6281 29.6093H20.5573C19.1011 29.6535 19.0216 31.7281 20.4609 31.8904C20.1759 33.0367 18.5162 32.8618 18.4872 31.6697V27.3864C18.5372 26.0635 20.4354 26.0625 20.4854 27.3857C20.4855 28.0167 20.9971 28.5286 21.6281 28.5286Z" fill="#214695"/>
<path d="M38.7617 37.5642H2.04688C0.532503 37.6204 0.533646 39.7937 2.04688 39.8494H38.7617C40.2761 39.7932 40.2749 37.6199 38.7617 37.5642Z" fill="#214695"/>
<path d="M2.04688 21.4919H38.7617C40.2761 21.4357 40.2749 19.2625 38.7617 19.2068H2.04688C0.532503 19.263 0.533646 21.4363 2.04688 21.4919Z" fill="#214695"/>
</svg>
