<svg width="31" height="41" viewBox="0 0 31 41" fill="none" xmlns="http://www.w3.org/2000/svg">
<path d="M8.4587 23.8168C10.0315 24.053 11.9512 23.6912 14.0483 23.5657C14.4396 23.6542 14.8309 23.7134 15.237 23.7134C15.6505 23.7134 16.0566 23.6542 16.4628 23.5583C21.9194 23.8241 26.1725 25.3674 26.1725 14.2621C26.1725 6.72323 21.277 0.602051 15.237 0.602051C9.19708 0.602051 4.30161 6.72323 4.30161 14.2621C4.30161 20.3242 5.46087 22.6797 7.34375 23.4993C7.69079 23.6617 8.06736 23.7577 8.4587 23.8168ZM6.71612 10.0016C7.86061 11.5892 10.8289 11.2495 13.3911 9.24111C14.0409 8.73163 14.6094 8.14831 15.0672 7.5576C15.1263 7.56499 15.1854 7.57237 15.2444 7.58714C15.4955 7.63144 15.7244 7.72005 15.9828 7.80127C16.2118 7.91203 16.4628 8.00063 16.6843 8.14093C16.9132 8.25907 17.1199 8.42151 17.3267 8.5618C17.5113 8.72425 17.718 8.87931 17.8731 9.05652C18.0354 9.21896 18.1906 9.39617 18.3086 9.566C18.4415 9.72845 18.5376 9.89827 18.6335 10.0459C18.7294 10.1936 18.8107 10.3265 18.855 10.4447C18.9658 10.6736 19.0322 10.8065 19.0322 10.8065C19.0322 10.8065 19.01 10.6662 18.9658 10.4078C18.951 10.2748 18.9141 10.1272 18.8698 9.94996C18.8254 9.77275 18.7737 9.566 18.6852 9.35925C18.6114 9.14512 18.508 8.92361 18.3899 8.68733C18.2791 8.45105 18.1167 8.22215 17.9615 7.9711C17.7769 7.7422 17.6071 7.49115 17.3856 7.26964C17.1788 7.03335 16.9278 6.83399 16.6841 6.61986C16.4552 6.45742 16.2116 6.2802 15.9532 6.13991C16.064 5.91101 16.1525 5.67473 16.2263 5.45322C17.1419 5.86671 18.0797 6.39096 18.8254 7.13673C21.5649 9.87612 20.4868 13.0585 22.5986 10.9542C22.9309 10.6219 23.204 10.2748 23.4182 9.92781C23.4921 9.92781 23.5659 9.92042 23.625 9.93519C23.913 10.009 24.0975 10.2305 24.2009 10.4078C24.4889 10.8877 24.5554 11.5818 24.3781 12.2759C24.1123 13.3096 23.433 13.9225 22.8866 13.9889L22.4436 14.048L22.3255 14.4836C21.277 18.2863 18.449 22.3326 15.2518 22.3326C12.0546 22.3326 9.234 18.2863 8.17812 14.4836L8.05998 14.048L7.61695 13.9889C7.07793 13.9151 6.39123 13.3022 6.12542 12.2759C5.94821 11.5818 6.01466 10.8877 6.30263 10.4078C6.36908 10.2748 6.51676 10.105 6.71612 10.0016Z" fill="#214695"/>
<path d="M23.4552 24.8136C22.5987 26.2755 21.6019 27.5087 20.2876 28.1879C17.5703 29.5761 15.5472 30.7132 15.5472 30.7132L15.5398 30.7058V30.6836L15.5176 30.6983L15.4955 30.6836V30.7058L15.4881 30.7132C15.4881 30.7132 13.4723 29.5908 10.7477 28.1879C9.43337 27.5087 8.44393 26.2755 7.58003 24.8136C3.55585 26.4527 0.75 30.2037 0.75 33.4895C0.75 36.9452 0.75 40.2974 0.75 40.2974H30.2853C30.2853 40.2974 30.2853 36.9452 30.2853 33.4895C30.2853 30.2111 27.472 26.4528 23.4552 24.8136Z" fill="#214695"/>
</svg>
